<?xml version="1.0" encoding="utf-8"?>
<!-- Generator: Adobe Illustrator 24.0.2, SVG Export Plug-In . SVG Version: 6.00 Build 0)  -->
<svg version="1.1" id="Layer_1" xmlns="http://www.w3.org/2000/svg" xmlns:xlink="http://www.w3.org/1999/xlink" x="0px" y="0px"
	 viewBox="0 0 360 220" style="enable-background:new 0 0 360 220;" xml:space="preserve">
<style type="text/css">
	.st0{opacity:0.3;}
	.st1{fill:#010101;}
	.st2{fill:#FFFFFF;}
	.st3{fill:#D6D5D5;}
	.st4{fill:#1CB394;}
	.st5{opacity:0.3;fill:#010101;enable-background:new    ;}
	.st6{fill:#195291;}
	.st7{fill:#E9C27B;}
	.st8{fill:#0D3354;}
	.st9{fill:#5891CD;}
	.st10{opacity:0.2;fill:#FFFFFF;enable-background:new    ;}
</style>
<g class="st0">
	<rect x="76.4" y="30.5" class="st1" width="128.3" height="161.7"/>
</g>
<g>
	<g>
		<rect x="83.3" y="23.6" class="st2" width="128.3" height="161.7"/>
	</g>
	<g>
		<rect x="100.7" y="41.6" class="st2" width="12.6" height="12.6"/>
		<path class="st1" d="M112.1,42.7v10.4h-10.3V42.7H112.1 M114.3,40.5H99.6v14.8h14.8V40.5L114.3,40.5z"/>
	</g>
	<g>
		<rect x="123.6" y="40.5" class="st3" width="72.8" height="4.8"/>
	</g>
	<g>
		<rect x="123.6" y="50.5" class="st3" width="72.8" height="4.8"/>
	</g>
	<g>
		<rect x="120.6" y="138.1" class="st3" width="22.9" height="4.8"/>
	</g>
	<g>
		<rect x="99.6" y="119.3" class="st3" width="96.9" height="4.8"/>
	</g>
	<g>
		<rect x="99.6" y="108.2" class="st3" width="96.9" height="4.8"/>
	</g>
	<g>
		<polygon class="st2" points="116.7,43.7 115.4,42.3 108.8,49 105.7,45.9 104.4,47.2 107.5,50.3 107.4,50.3 108.8,51.6 108.8,51.6 
			108.8,51.6 110.1,50.3 110.1,50.3 		"/>
		<polygon class="st4" points="115.4,42.3 108.8,49 105.7,45.9 104.4,47.2 107.5,50.3 107.4,50.3 108.8,51.6 108.8,51.6 108.8,51.6 
			110.1,50.3 110.1,50.3 116.7,43.7 		"/>
	</g>
	<g>
		<g>
			<rect x="100.7" y="63.5" class="st2" width="12.6" height="12.6"/>
			<path class="st1" d="M112.1,64.6v10.3h-10.3V64.6H112.1 M114.3,62.3H99.6v14.8h14.8V62.3L114.3,62.3z"/>
		</g>
		<g>
			<rect x="123.6" y="67.5" class="st3" width="72.8" height="4.8"/>
		</g>
		<g>
			<polygon class="st2" points="116.7,65.5 115.4,64.2 108.8,70.8 105.7,67.7 104.4,69 107.5,72.1 107.4,72.1 108.8,73.4 
				108.8,73.4 108.8,73.4 110.1,72.1 110.1,72.1 			"/>
			<polygon class="st4" points="115.4,64.2 108.8,70.8 105.7,67.7 104.4,69 107.5,72.1 107.4,72.1 108.8,73.4 108.8,73.4 
				108.8,73.4 110.1,72.1 110.1,72.1 116.7,65.5 			"/>
		</g>
	</g>
	<g>
		<g>
			<rect x="100.7" y="85.3" class="st2" width="12.6" height="12.6"/>
			<path class="st1" d="M112.1,86.4v10.3h-10.3V86.4H112.1 M114.3,84.2H99.6v14.8h14.8V84.2L114.3,84.2z"/>
		</g>
		<g>
			<rect x="123.6" y="84.2" class="st3" width="72.8" height="4.8"/>
		</g>
		<g>
			<rect x="123.6" y="94.1" class="st3" width="36.2" height="4.8"/>
		</g>
		<g>
			<polygon class="st2" points="116.7,87.3 115.4,86 108.8,92.6 105.7,89.5 104.4,90.8 107.5,93.9 107.4,93.9 108.8,95.3 
				108.8,95.2 108.8,95.3 110.1,93.9 110.1,93.9 			"/>
			<polygon class="st4" points="115.4,86 108.8,92.6 105.7,89.5 104.4,90.8 107.5,93.9 107.4,93.9 108.8,95.3 108.8,95.2 
				108.8,95.3 110.1,93.9 110.1,93.9 116.7,87.3 			"/>
		</g>
	</g>
	<g>
		<circle class="st2" cx="106.9" cy="140.4" r="6.3"/>
		<path class="st1" d="M106.9,147.7c-4.1,0-7.4-3.3-7.4-7.4s3.3-7.4,7.4-7.4c4.1,0,7.4,3.3,7.4,7.4
			C114.3,144.4,111,147.7,106.9,147.7z M106.9,135.2c-2.8,0-5.2,2.3-5.2,5.1s2.3,5.1,5.2,5.1c2.8,0,5.2-2.3,5.2-5.1
			S109.8,135.2,106.9,135.2z"/>
	</g>
	<g>
		<circle class="st2" cx="106.9" cy="140.4" r="2.2"/>
		<path class="st4" d="M106.9,138.1c-1.2,0-2.2,1-2.2,2.2s1,2.2,2.2,2.2s2.2-1,2.2-2.2S108.2,138.1,106.9,138.1L106.9,138.1z"/>
	</g>
	<g>
		<rect x="173.5" y="138.1" class="st3" width="22.9" height="4.8"/>
		<g>
			<circle class="st2" cx="159.8" cy="140.4" r="6.3"/>
			<path class="st1" d="M159.8,147.7c-4.1,0-7.4-3.3-7.4-7.4s3.3-7.4,7.4-7.4s7.4,3.3,7.4,7.4S163.9,147.7,159.8,147.7z
				 M159.8,135.2c-2.9,0-5.2,2.3-5.2,5.2s2.3,5.2,5.2,5.2s5.2-2.3,5.2-5.2S162.7,135.2,159.8,135.2z"/>
		</g>
		<g>
			<circle class="st2" cx="159.8" cy="140.4" r="1.1"/>
			<path class="st4" d="M159.8,140.4L159.8,140.4L159.8,140.4 M159.8,138.1c-1.2,0-2.2,1-2.2,2.2s1,2.2,2.2,2.2s2.2-1,2.2-2.2
				S161.1,138.1,159.8,138.1L159.8,138.1z"/>
		</g>
	</g>
	<g>
		<rect x="173.5" y="158.8" class="st3" width="22.9" height="4.8"/>
		<g>
			<circle class="st2" cx="159.8" cy="161.1" r="6.3"/>
			<path class="st1" d="M159.8,168.4c-4.1,0-7.4-3.3-7.4-7.4c0-4.1,3.3-7.4,7.4-7.4s7.4,3.3,7.4,7.4
				C167.2,165.1,163.9,168.4,159.8,168.4z M159.8,155.9c-2.9,0-5.2,2.3-5.2,5.2c0,2.9,2.3,5.2,5.2,5.2s5.2-2.3,5.2-5.2
				C165,158.2,162.7,155.9,159.8,155.9z"/>
		</g>
		<g>
			<circle class="st2" cx="159.8" cy="161.1" r="1.1"/>
			<path class="st4" d="M159.8,161.1L159.8,161.1L159.8,161.1 M159.8,158.8c-1.2,0-2.2,1-2.2,2.2s1,2.2,2.2,2.2s2.2-1,2.2-2.2
				S161.1,158.8,159.8,158.8L159.8,158.8z"/>
		</g>
	</g>
	<g>
		<rect x="120.6" y="158.8" class="st3" width="22.9" height="4.8"/>
		<g>
			<circle class="st2" cx="106.9" cy="161.1" r="6.3"/>
			<path class="st1" d="M106.9,168.4c-4.1,0-7.4-3.3-7.4-7.4c0-4.1,3.3-7.4,7.4-7.4c4.1,0,7.4,3.3,7.4,7.4
				C114.3,165.1,111,168.4,106.9,168.4z M106.9,155.9c-2.8,0-5.2,2.3-5.2,5.2c0,2.9,2.3,5.2,5.2,5.2c2.8,0,5.2-2.3,5.2-5.2
				C112.1,158.2,109.8,155.9,106.9,155.9z"/>
		</g>
		<g>
			<circle class="st2" cx="106.9" cy="161.1" r="1.1"/>
			<path class="st4" d="M106.9,161.1L106.9,161.1L106.9,161.1 M106.9,158.8c-1.2,0-2.2,1-2.2,2.2s1,2.2,2.2,2.2s2.2-1,2.2-2.2
				S108.2,158.8,106.9,158.8L106.9,158.8z"/>
		</g>
	</g>
</g>
<polygon class="st5" points="131.7,107 219.3,19.4 220.2,18.5 222.7,16.1 214.3,7.7 211.8,10.1 210.9,11 123.3,98.6 109.7,112.9 "/>
<g>
	
		<rect x="107" y="47.7" transform="matrix(0.7071 -0.7071 0.7071 0.7071 11.558 135.1547)" class="st6" width="123.9" height="11.9"/>
	<polygon class="st7" points="120.9,93.2 109.7,112.9 129.3,101.6 	"/>
	<g>
		<polygon class="st1" points="213.7,0.4 208.5,5.6 216.9,14 222.1,8.8 		"/>
	</g>
	<g>
		
			<rect x="212.5" y="3.4" transform="matrix(0.7071 -0.7071 0.7071 0.7071 55.815 153.4853)" class="st2" width="1.3" height="11.9"/>
	</g>
	<rect x="107" y="51.1" transform="matrix(0.7071 -0.7071 0.7071 0.7071 11.562 135.1476)" class="st8" width="123.9" height="5"/>
	<polygon class="st1" points="120.8,106.5 116,101.8 109.7,112.9 	"/>
</g>
<g>
	<g>
		<path class="st9" d="M296.4,161.5c0.9-3.2,1.4-6.6,1.4-10.2c0-20.3-16.5-36.8-36.8-36.8c-14.2,0-26.6,8.1-32.7,19.9
			c-3.7-1.8-7.8-2.7-12.1-2.7c-15.6,0-28.2,12.6-28.2,28.2c0,0.4,0,0.9,0,1.3c-13.7,0.6-24.7,11.9-24.7,25.7
			c0,14.1,11.3,25.6,25.4,25.8v0h103.8c14.2,0,25.8-11.5,25.8-25.8C318.3,174.1,308.8,163.4,296.4,161.5z"/>
		<g>
			<path class="st10" d="M250.7,125.5c19.2,0,34.8,15.6,34.8,34.8c0,3.3-0.5,6.6-1.4,9.6c11.8,1.7,20.8,11.9,20.8,24.1
				c0,2.9-0.5,5.7-1.5,8.3c3.4-3.9,5.5-9.1,5.5-14.7c0-11.3-8.4-20.7-19.2-22.3c0.8-2.8,1.3-5.8,1.3-8.9c0-17.8-14.4-32.2-32.2-32.2
				c-3.2,0-6.2,0.5-9.1,1.3C250,125.5,250.3,125.5,250.7,125.5z"/>
		</g>
	</g>
</g>
</svg>
